<?xml version="1.0" standalone="no"?>
<!DOCTYPE svg PUBLIC "-//W3C//DTD SVG 20010904//EN"
 "http://www.w3.org/TR/2001/REC-SVG-20010904/DTD/svg10.dtd">
<svg version="1.0" xmlns="http://www.w3.org/2000/svg"
 width="3107.000000pt" height="836.000000pt" viewBox="0 0 3107.000000 836.000000"
 preserveAspectRatio="xMidYMid meet">

<g transform="translate(0.000000,836.000000) scale(0.100000,-0.100000)"
fill="#000000" stroke="none">
<path d="M2147 8343 c-11 -13 -15 -38 -15 -88 1 -127 -55 -216 -184 -292 -99
-58 -183 -133 -234 -210 -21 -32 -42 -62 -45 -67 -4 -5 -20 1 -35 13 -15 11
-35 21 -45 21 -22 0 -59 -46 -59 -75 0 -52 -34 -116 -107 -201 -42 -49 -84
-107 -94 -129 -50 -109 -2 -221 169 -397 47 -49 83 -90 80 -93 -3 -3 -32 -10
-65 -16 -73 -13 -116 -38 -143 -81 -35 -57 -44 -106 -30 -168 10 -46 20 -63
66 -107 30 -28 54 -57 54 -64 0 -7 12 -25 26 -41 26 -27 27 -30 32 -196 l5
-170 -107 -13 c-58 -7 -110 -15 -115 -19 -15 -8 125 -3163 144 -3266 26 -141
74 -262 147 -370 33 -49 35 -57 40 -159 l6 -107 -49 48 c-132 129 -241 348
-284 564 -8 41 -19 185 -26 320 -14 313 -4 296 -162 293 l-115 -1 19 71 c46
179 65 388 49 539 -17 173 -78 377 -126 425 -31 31 -78 30 -109 -2 -21 -20
-25 -34 -25 -82 -1 -133 -46 -296 -128 -466 l-47 -99 -53 66 c-54 66 -148 154
-251 234 -41 32 -62 42 -91 42 -73 0 -86 -47 -46 -160 55 -151 59 -351 12
-583 -14 -68 -61 -243 -105 -388 -84 -280 -101 -353 -101 -431 0 -85 43 -158
104 -177 17 -6 112 -17 211 -26 99 -9 189 -18 200 -20 14 -3 27 -23 44 -71 13
-37 47 -114 76 -173 191 -386 512 -704 923 -915 l112 -57 2 -149 c1 -83 2
-167 3 -187 l0 -38 -74 -3 -74 -3 6 -49 c8 -71 27 -99 88 -135 53 -31 54 -32
59 -86 7 -68 23 -97 64 -114 17 -7 38 -25 45 -38 19 -37 81 -67 135 -67 61 0
106 19 142 62 16 18 42 40 57 48 37 19 50 44 57 109 5 54 6 55 59 86 61 36 77
60 87 133 l7 52 -77 0 -76 0 0 101 0 102 38 -6 c20 -3 85 -15 143 -26 153 -29
326 -50 461 -58 64 -3 121 -9 126 -12 6 -3 12 -55 13 -116 l4 -110 -74 -3 -73
-3 4 -61 c4 -54 8 -64 39 -92 20 -17 49 -38 66 -47 26 -14 31 -23 36 -71 6
-67 21 -93 63 -113 17 -8 39 -26 48 -40 29 -43 75 -65 139 -65 69 0 106 17
143 65 14 19 31 35 37 35 6 0 24 12 39 27 22 21 28 36 28 67 0 65 8 80 58 106
62 33 92 79 92 141 l0 49 -75 0 -75 0 0 115 0 114 33 5 c17 3 79 8 137 11 126
7 293 29 439 56 58 11 121 22 139 26 l32 6 0 -102 0 -101 -70 0 -70 0 0 -47
c0 -65 27 -106 90 -138 27 -14 50 -31 51 -38 9 -113 22 -142 68 -160 15 -5 35
-23 43 -38 52 -90 225 -91 283 -1 11 17 26 31 32 32 7 0 26 12 43 28 26 23 31
37 37 90 l6 63 49 25 c61 31 88 73 88 137 l0 47 -69 0 c-39 0 -72 4 -75 9 -3
5 -3 90 1 189 l6 179 94 46 c368 184 678 466 878 800 56 94 147 288 160 340 9
33 3 32 230 52 99 9 194 20 211 26 38 12 68 43 89 91 32 78 16 174 -80 493
-36 121 -77 265 -90 320 -70 287 -72 511 -6 685 37 98 21 150 -49 150 -32 0
-51 -10 -117 -62 -103 -82 -183 -159 -235 -225 l-42 -55 -34 68 c-84 167 -128
310 -141 463 -9 116 -24 141 -83 141 -42 0 -70 -34 -106 -126 -54 -141 -75
-267 -75 -449 0 -154 10 -230 59 -456 l6 -27 -112 2 c-154 2 -146 18 -159
-287 -12 -255 -30 -378 -77 -509 -55 -153 -127 -269 -231 -377 l-64 -66 6 105
c7 102 8 107 50 170 79 120 126 238 150 376 10 56 36 586 79 1587 36 826 68
1541 71 1589 7 101 19 91 -133 108 l-103 12 3 173 3 173 28 22 c15 12 27 30
27 40 0 11 18 31 42 47 110 74 119 242 18 326 -30 26 -61 37 -144 54 l-39 8
40 27 c71 47 144 128 176 196 42 90 42 165 -1 253 -17 35 -38 73 -46 84 -14
18 -10 30 39 135 30 63 60 140 66 170 15 72 6 187 -20 244 -37 85 -104 83
-130 -3 -12 -40 -64 -111 -82 -111 -17 0 -9 49 21 118 55 130 35 239 -69 370
-32 41 -48 52 -70 52 -45 0 -59 -25 -59 -106 1 -55 -5 -83 -24 -125 -36 -79
-67 -111 -176 -177 -104 -64 -166 -123 -227 -215 -21 -31 -40 -57 -42 -57 -3
0 -16 9 -30 20 -14 11 -32 20 -40 20 -28 0 -60 -45 -66 -93 -9 -64 -26 -94
-109 -190 -39 -45 -79 -100 -89 -122 -50 -109 -3 -221 169 -397 47 -49 83 -90
80 -93 -3 -3 -30 -10 -61 -15 -30 -5 -68 -15 -84 -23 -127 -67 -139 -268 -20
-346 22 -14 37 -32 37 -44 0 -10 13 -31 29 -46 29 -27 29 -28 32 -157 l3 -129
-29 0 c-17 0 -121 4 -232 9 l-203 9 0 123 c0 115 1 124 21 134 11 7 26 25 34
42 7 18 30 43 51 57 104 71 112 242 15 324 -32 26 -71 41 -144 52 l-38 6 61
45 c72 55 123 112 158 179 22 42 27 63 27 130 0 82 -8 103 -72 206 -16 25 -15
29 35 135 65 138 76 183 70 292 -7 142 -54 216 -116 183 -10 -5 -29 -36 -40
-68 -12 -33 -35 -71 -51 -87 -28 -27 -29 -27 -36 -7 -4 12 6 50 26 98 45 110
45 186 1 275 -40 82 -106 158 -136 158 -46 0 -57 -20 -60 -105 -4 -138 -63
-228 -198 -301 -84 -45 -176 -132 -232 -220 l-39 -60 -23 23 c-46 46 -98 20
-109 -54 -10 -69 -37 -119 -111 -203 -74 -84 -101 -130 -109 -187 -13 -83 49
-195 188 -340 l79 -83 -26 -10 c-15 -5 -36 -10 -47 -10 -29 0 -90 -28 -117
-53 -90 -83 -80 -249 19 -315 19 -13 37 -36 42 -53 4 -16 19 -36 32 -45 24
-16 25 -20 25 -139 l0 -122 -187 -7 c-104 -3 -210 -9 -236 -13 l-48 -6 7 134
c6 122 9 136 30 156 13 12 26 33 30 47 3 14 14 28 25 31 59 19 117 142 102
217 -18 97 -76 150 -186 169 -37 6 -67 12 -65 14 2 1 31 25 66 53 192 153 225
315 103 498 l-21 31 51 104 c66 134 83 202 76 300 -9 135 -63 214 -120 176
-13 -8 -29 -34 -36 -56 -12 -40 -64 -111 -82 -111 -17 0 -9 49 17 107 17 38
28 83 31 131 5 68 4 77 -30 145 -64 130 -137 187 -180 140z m128 -167 c35 -69
33 -128 -6 -224 -26 -66 -30 -85 -25 -134 3 -35 2 -60 -5 -64 -20 -12 -69 -87
-69 -105 0 -15 12 -9 61 29 180 139 190 150 213 216 l13 38 17 -48 c19 -55 21
-141 5 -199 -6 -22 -34 -87 -61 -145 -27 -58 -50 -118 -51 -135 0 -19 12 -48
35 -82 20 -29 41 -74 48 -102 24 -99 -34 -210 -159 -304 -54 -40 -65 -45 -87
-37 -14 6 -38 10 -53 10 -44 0 -43 10 7 50 176 139 208 276 95 399 l-42 46 -1
-67 c0 -121 -61 -250 -166 -355 -59 -59 -65 -63 -109 -63 l-47 0 46 50 c63 71
88 143 90 255 0 74 -4 105 -28 176 l-29 86 27 59 c15 33 51 91 81 129 89 117
108 164 113 278 5 107 -8 128 -27 45 -25 -113 -53 -154 -214 -313 -124 -122
-159 -163 -191 -223 -21 -40 -36 -76 -33 -78 7 -8 107 58 134 87 12 14 36 49
53 79 l31 55 -7 -44 c-11 -75 -33 -113 -115 -196 -90 -92 -118 -146 -119 -225
-1 -54 -1 -54 -15 -28 -8 15 -19 51 -23 80 l-8 53 -22 -42 c-12 -23 -22 -53
-22 -65 0 -13 -5 -30 -10 -38 -14 -22 -13 98 1 141 7 19 27 50 47 71 34 36 34
37 22 85 -6 26 -24 75 -40 108 l-28 60 -1 -44 c-1 -24 -18 -92 -38 -150 -23
-68 -36 -123 -36 -154 1 -68 52 -168 124 -239 31 -32 54 -60 51 -62 -4 -2 -24
-6 -45 -10 -37 -7 -39 -5 -115 71 -88 90 -159 190 -168 239 -12 63 3 97 82
190 85 100 112 147 129 219 l12 50 21 -35 c12 -19 24 -54 28 -78 l6 -43 22 53
c62 151 168 279 294 352 144 82 211 179 220 315 l5 74 28 -34 c16 -19 40 -56
54 -83z m1311 -44 c18 -61 14 -96 -20 -174 -30 -70 -37 -109 -26 -149 8 -29 6
-37 -14 -59 -29 -31 -66 -91 -66 -107 0 -7 54 27 119 77 104 78 123 97 147
145 31 64 37 61 54 -30 15 -81 -3 -158 -70 -297 -27 -58 -50 -118 -50 -135 0
-17 13 -46 30 -70 35 -48 60 -113 60 -157 0 -86 -69 -189 -180 -271 -42 -31
-52 -34 -75 -25 -14 5 -42 10 -61 10 -19 0 -34 3 -33 8 0 4 28 27 62 52 35 26
79 70 101 103 34 49 41 67 44 121 4 67 -6 99 -55 163 -39 51 -48 48 -49 -21
-2 -123 -69 -261 -178 -364 -48 -45 -60 -52 -95 -52 -23 0 -41 4 -41 8 0 4 15
23 34 41 19 18 47 61 63 95 25 55 28 71 27 166 0 88 -4 117 -27 178 l-26 73
19 52 c11 29 47 88 81 132 101 133 112 162 116 290 l3 110 -33 -96 c-41 -119
-78 -171 -202 -279 -53 -47 -113 -108 -134 -136 -33 -43 -101 -163 -101 -178
0 -3 23 9 50 26 62 39 125 105 151 161 l20 42 -5 -48 c-8 -68 -28 -102 -116
-192 -93 -96 -111 -129 -118 -212 -2 -35 -7 -61 -10 -58 -3 3 -13 35 -22 73
l-16 67 -19 -28 c-10 -16 -20 -51 -23 -78 -6 -61 -22 -46 -22 20 0 64 18 116
58 162 41 48 40 70 -6 175 l-30 68 -7 -50 c-4 -27 -23 -91 -41 -143 -21 -56
-34 -112 -34 -141 0 -67 57 -176 126 -245 30 -29 51 -55 47 -58 -4 -2 -24 -7
-44 -11 -34 -6 -38 -3 -116 76 -89 92 -159 193 -169 244 -10 52 11 94 93 189
78 92 123 170 123 217 0 15 5 30 10 33 14 9 49 -72 50 -115 1 -32 4 -28 40 49
78 163 159 254 300 335 42 25 92 62 110 82 50 57 89 151 97 228 l6 67 38 -53
c22 -29 46 -77 55 -106z m1259 44 c34 -67 33 -129 -2 -214 -21 -50 -28 -84
-28 -134 0 -53 -4 -71 -21 -90 -34 -37 -54 -71 -54 -90 0 -18 12 -9 174 118
57 45 95 95 103 138 l6 29 15 -29 c9 -16 17 -63 20 -104 5 -87 -13 -151 -80
-283 -51 -102 -52 -128 -6 -194 20 -29 41 -74 48 -102 24 -99 -37 -215 -161
-306 -52 -38 -64 -43 -85 -35 -14 6 -40 10 -58 10 -18 0 -35 3 -39 6 -3 4 20
25 51 49 167 122 199 271 87 404 -34 39 -43 39 -37 1 7 -50 -17 -149 -55 -230
-26 -53 -56 -95 -107 -147 -67 -68 -75 -73 -114 -73 -23 0 -42 3 -42 6 0 3 20
29 45 56 63 71 90 158 82 277 -3 52 -13 107 -26 141 -11 30 -21 69 -21 86 0
39 37 109 105 199 93 123 122 209 108 324 l-6 55 -28 -88 c-35 -113 -76 -172
-191 -275 -51 -45 -112 -106 -135 -134 -41 -50 -119 -184 -111 -192 2 -2 34
17 72 43 52 36 78 62 108 112 l40 65 -6 -43 c-10 -66 -38 -112 -118 -193 -90
-90 -112 -133 -113 -216 0 -34 -3 -59 -7 -55 -4 4 -16 39 -26 77 l-20 70 -21
-45 c-11 -25 -21 -61 -21 -80 -1 -29 -3 -31 -10 -15 -24 56 -2 157 46 214 19
21 34 49 34 60 0 12 -14 59 -32 104 l-32 82 -12 -60 c-7 -33 -26 -97 -43 -143
-19 -50 -31 -102 -31 -131 0 -68 54 -173 126 -244 57 -57 58 -60 11 -71 -38
-9 -92 35 -183 147 -97 120 -120 182 -95 250 5 13 41 61 81 108 81 95 108 142
125 214 l12 50 21 -35 c12 -19 24 -54 28 -78 l6 -43 22 53 c62 152 164 273
296 352 147 87 212 180 219 316 l3 75 30 -35 c16 -19 40 -57 53 -84z m-2686
-322 c-16 -56 -42 -103 -97 -176 -26 -34 -61 -83 -76 -108 l-27 -45 3 61 c4
61 4 61 79 135 46 46 83 94 98 126 28 61 35 64 20 7z m1282 -35 c-12 -30 -46
-88 -78 -129 -32 -41 -70 -97 -86 -125 l-28 -50 6 65 c6 63 8 65 79 140 40 42
84 99 97 126 30 63 37 45 10 -27z m1269 -1 c-11 -30 -45 -88 -76 -129 -31 -40
-70 -96 -86 -124 l-29 -50 7 65 c6 64 7 66 83 145 42 44 85 100 96 124 26 60
31 37 5 -31z m-2820 -278 c-22 -43 -108 -135 -118 -126 -6 7 40 77 92 140 45
55 58 48 26 -14z m1308 33 c-22 -51 -56 -99 -88 -127 -42 -35 -48 -27 -19 21
21 34 107 133 115 133 2 0 -2 -12 -8 -27z m1267 -10 c-20 -47 -60 -98 -105
-132 l-34 -26 27 45 c25 42 113 150 123 150 2 0 -3 -17 -11 -37z m-2488 -202
c43 -130 29 -274 -36 -362 -46 -62 -95 -99 -133 -99 l-34 0 -27 93 c-15 51
-27 111 -27 133 1 62 35 122 114 199 40 40 81 90 92 112 16 34 20 37 22 19 2
-11 15 -54 29 -95z m1319 -108 c14 -116 -35 -248 -119 -317 -38 -31 -51 -36
-91 -35 -41 2 -53 9 -106 56 -59 53 -60 56 -60 106 0 64 14 92 24 50 9 -34
106 -206 113 -199 3 3 -5 38 -18 78 -28 90 -30 170 -5 221 11 21 53 73 95 115
42 42 83 92 91 111 l13 34 28 -84 c15 -46 31 -108 35 -136z m1268 -43 c1 -89
-1 -100 -32 -162 -20 -42 -50 -82 -79 -108 -41 -35 -53 -41 -88 -39 -51 3 -68
12 -127 67 -45 42 -48 48 -48 96 0 63 14 91 24 49 8 -31 108 -205 114 -198 3
2 -8 47 -23 100 -40 143 -24 196 94 310 38 37 77 84 87 105 l19 39 29 -82 c24
-67 29 -99 30 -177z m-2914 148 c0 -11 -12 -34 -27 -52 -33 -39 -53 -87 -53
-126 0 -18 -4 -29 -10 -25 -19 12 -10 94 21 177 17 45 33 90 36 98 5 18 33
-42 33 -72z m1285 32 l17 -51 -36 -39 c-32 -36 -49 -75 -58 -140 -4 -21 -6
-19 -13 15 -5 24 -4 53 2 75 15 50 65 190 69 190 1 0 10 -23 19 -50z m1274 -6
c12 -45 11 -46 -23 -84 -33 -37 -55 -91 -56 -135 -1 -19 -1 -19 -11 -1 -6 10
-9 35 -6 55 6 45 70 220 78 215 4 -2 12 -24 18 -50z m-1918 -152 c30 -90 -46
-212 -188 -302 -83 -53 -93 -38 -25 35 71 76 139 205 148 280 9 78 12 83 34
50 11 -17 25 -45 31 -63z m1285 21 c42 -96 -26 -221 -171 -317 -70 -47 -118
-50 -60 -4 34 27 109 133 139 198 14 29 30 85 37 123 11 63 14 68 27 51 8 -11
20 -33 28 -51z m1265 13 c22 -50 24 -104 4 -152 -29 -70 -190 -214 -239 -214
-13 0 -1 18 39 63 69 77 132 200 147 289 7 37 16 64 21 61 5 -3 18 -24 28 -47z
m-3186 -163 c4 -16 29 -65 56 -109 27 -45 49 -85 49 -89 0 -21 -118 88 -130
121 -10 24 -1 104 10 104 4 0 11 -12 15 -27z m518 -273 c20 -6 37 -14 37 -18
0 -4 -128 -7 -285 -7 -243 0 -282 2 -270 14 7 8 42 17 77 22 82 10 392 2 441
-11z m1279 0 c21 -6 39 -14 42 -18 2 -4 -126 -7 -285 -7 -239 0 -286 2 -275
13 7 7 44 17 82 22 87 11 386 4 436 -10z m1208 10 c52 -6 100 -16 107 -23 10
-9 -48 -12 -277 -12 -239 0 -287 2 -276 13 27 28 275 40 446 22z m-2435 -81
c131 -15 172 -28 200 -60 48 -58 42 -139 -15 -194 l-30 -28 -122 11 c-68 7
-215 12 -328 12 -113 0 -260 -5 -328 -12 l-122 -11 -30 28 c-62 60 -62 156 0
208 31 27 110 42 299 57 108 9 355 4 476 -11z m1160 11 c211 -15 273 -28 313
-65 63 -57 53 -170 -18 -213 -26 -16 -37 -17 -122 -6 -52 7 -203 13 -343 13
-140 0 -291 -6 -343 -13 -85 -11 -96 -10 -122 6 -80 48 -80 184 0 231 32 19
132 36 278 46 154 11 211 12 357 1z m1438 -15 c59 -8 120 -22 136 -31 81 -48
82 -183 1 -232 -26 -16 -37 -17 -122 -6 -52 7 -203 13 -343 13 -140 0 -291 -6
-343 -13 -85 -11 -96 -10 -122 6 -43 26 -63 72 -57 132 4 41 11 55 39 81 29
27 48 34 117 45 201 31 475 33 694 5z m-2715 -295 c194 -12 222 -17 222 -40 0
-27 -20 -30 -117 -20 -114 12 -463 12 -577 0 -91 -9 -116 -4 -116 25 0 15 59
25 215 35 164 10 206 10 373 0z m1422 -11 c82 -10 96 -17 78 -42 -12 -15 -24
-15 -123 -6 -91 9 -502 7 -640 -4 -24 -2 -31 2 -33 19 -3 19 3 23 50 29 166
24 493 26 668 4z m1280 0 c82 -10 102 -21 80 -44 -13 -12 -31 -12 -120 -3 -87
9 -507 6 -645 -5 -24 -2 -31 2 -33 19 -3 19 3 23 50 29 166 24 493 26 668 4z
m-2617 -86 l67 -6 0 -147 c0 -168 4 -160 -86 -160 l-54 0 0 79 c0 96 5 110 43
126 l30 13 -28 18 c-25 16 -30 16 -54 3 -25 -14 -26 -17 -29 -130 l-3 -116
-61 -7 c-107 -11 -98 -19 -98 94 l0 101 30 17 c37 21 38 30 4 43 -20 7 -32 6
-50 -6 -22 -14 -24 -22 -26 -138 l-3 -122 -73 -9 c-40 -5 -75 -7 -77 -4 -9 8
-18 176 -11 202 4 18 18 32 38 40 l31 14 -26 17 c-23 14 -30 15 -54 3 l-28
-14 0 -134 0 -134 -35 -7 c-19 -4 -36 -7 -37 -6 0 1 -4 84 -8 184 l-8 182 49
4 c88 6 487 7 557 0z m1347 -9 c8 -8 9 -50 4 -138 l-7 -126 -70 0 c-59 0 -68
2 -63 16 3 9 6 40 6 70 0 51 2 56 30 72 37 21 38 30 4 43 -20 7 -32 6 -49 -5
-19 -13 -23 -27 -29 -105 l-8 -91 -79 0 -79 0 0 59 c0 75 6 90 43 106 l30 13
-28 18 c-25 16 -30 16 -54 3 -25 -14 -26 -19 -29 -107 l-3 -92 -79 0 -80 0 0
70 c0 68 1 72 30 88 37 21 38 30 4 43 -20 7 -32 6 -50 -6 -22 -14 -24 -22 -24
-105 l0 -90 -40 0 -40 0 -1 120 c-1 66 -2 126 -3 133 -2 20 80 25 376 23 187
-1 281 -5 288 -12z m1223 9 l68 -6 -6 -171 c-4 -94 -8 -176 -10 -182 -2 -7
-23 -8 -65 -3 -34 4 -62 9 -63 10 -2 2 -1 53 1 113 4 107 4 108 33 125 36 20
36 29 3 42 -20 7 -32 6 -50 -6 -20 -13 -24 -24 -24 -69 0 -29 -3 -87 -6 -129
l-7 -75 -31 4 c-17 2 -52 6 -78 9 l-48 6 0 95 c0 81 3 97 20 114 11 11 28 20
38 20 14 1 13 4 -7 21 -15 12 -31 17 -45 13 -40 -12 -46 -32 -46 -150 l0 -113
-57 5 c-110 10 -103 2 -103 105 0 89 0 90 30 107 37 21 38 30 4 43 -20 7 -32
6 -50 -6 -23 -15 -24 -21 -24 -126 l0 -110 -37 3 -38 3 -3 152 -3 152 48 4
c87 6 487 7 556 0z m-1193 -353 c320 -10 640 -30 900 -55 189 -19 583 -65 588
-69 5 -5 -108 -2549 -113 -2554 -3 -3 -6 -3 -8 -1 -2 2 -72 84 -156 182 l-152
177 -86 -74 -86 -74 -118 138 c-66 76 -119 140 -119 142 0 3 38 37 85 77 l85
72 -177 207 c-96 114 -181 213 -187 219 -9 10 -31 -4 -98 -62 l-87 -75 -120
141 -121 140 83 71 c45 39 82 75 82 80 0 4 -83 105 -183 223 l-184 214 -86
-74 c-48 -41 -89 -71 -93 -67 -41 44 -229 269 -229 274 0 3 36 36 80 73 44 37
80 71 80 76 0 5 -83 106 -184 223 l-183 214 -87 -75 c-48 -41 -88 -73 -90 -72
-1 2 -56 67 -121 144 l-119 140 68 8 c69 7 499 23 711 25 66 1 257 -3 425 -8z
m-1130 -215 c85 -101 158 -184 161 -184 3 -1 43 31 88 70 44 38 85 67 91 64
11 -7 280 -321 280 -328 0 -2 -38 -36 -85 -76 l-85 -72 151 -177 c84 -97 157
-183 164 -191 11 -11 26 -2 94 55 45 38 86 69 91 69 6 0 73 -73 150 -163 l140
-163 -83 -71 c-45 -39 -82 -75 -82 -80 0 -5 71 -92 158 -194 139 -162 161
-183 175 -172 10 7 47 39 83 70 37 32 71 58 75 57 9 0 276 -311 282 -327 1 -5
-34 -39 -78 -76 -44 -37 -80 -72 -80 -77 0 -8 167 -208 311 -373 4 -4 45 24
92 63 46 39 87 71 90 71 8 0 290 -331 285 -334 -17 -15 -155 -131 -162 -137
-5 -4 35 -59 89 -121 l97 -113 -6 -75 c-38 -441 -322 -753 -823 -904 -18 -6
-42 18 -169 166 -81 95 -153 179 -160 187 -11 12 -26 3 -98 -57 -47 -40 -87
-72 -89 -72 -2 0 -68 75 -147 166 l-142 166 31 26 c17 15 56 47 86 72 30 25
53 48 52 52 -3 9 -318 378 -324 378 -2 0 -41 -32 -85 -70 -45 -39 -85 -69 -89
-68 -11 5 -279 321 -279 329 0 4 36 38 80 76 44 37 78 74 75 80 -5 15 -307
371 -315 372 -3 1 -42 -31 -87 -69 -45 -39 -84 -70 -86 -70 -3 0 -69 75 -148
166 -118 137 -139 168 -128 178 8 7 46 40 86 75 l72 62 -146 172 c-80 95 -154
180 -164 191 -17 18 -20 17 -100 -53 -45 -39 -85 -71 -88 -71 -10 0 -281 318
-281 329 0 6 36 40 80 78 44 37 80 70 80 73 0 3 -48 61 -107 130 l-108 125
-17 380 c-9 209 -17 403 -17 431 l-1 51 123 16 c267 35 652 74 737 75 l55 1
155 -184z m-958 -1062 c-26 -23 -50 -42 -54 -43 -5 0 -8 17 -8 38 0 20 -3 69
-6 107 l-5 70 60 -65 61 -64 -48 -43z m112 -381 l138 -161 83 70 c46 39 86 71
90 71 8 -1 235 -264 235 -274 0 -4 -36 -37 -80 -75 -44 -37 -80 -71 -80 -76 0
-4 83 -104 184 -222 l184 -214 82 70 c45 38 86 69 91 69 4 0 61 -61 125 -136
l117 -136 -49 -42 c-27 -22 -66 -57 -86 -76 l-37 -35 182 -212 c100 -116 186
-212 190 -213 5 -1 46 30 92 69 l83 70 111 -129 c61 -72 114 -136 117 -144 3
-9 -25 -39 -75 -82 -45 -38 -81 -71 -81 -75 0 -10 363 -429 372 -429 5 0 46
32 90 70 45 39 85 67 89 63 70 -76 248 -287 245 -290 -9 -9 -130 -33 -264 -53
-383 -56 -941 -38 -1277 40 -571 133 -897 435 -954 885 -10 78 -82 1627 -81
1746 1 37 3 41 13 28 7 -8 74 -88 151 -177z m-654 -219 c80 -248 79 -501 -3
-813 l-22 -85 -220 -18 c-261 -22 -277 -27 -318 -107 -39 -77 -55 -168 -67
-375 -17 -277 -41 -373 -103 -403 -36 -17 -85 -4 -111 31 -40 54 -25 145 74
467 108 350 140 516 140 728 0 135 -16 246 -46 318 -8 20 -13 38 -11 40 2 2
47 -32 100 -76 114 -95 212 -206 259 -296 l36 -67 12 39 c7 21 43 105 81 186
102 218 139 347 139 477 0 104 15 92 60 -46z m4611 12 c10 -118 36 -215 90
-337 23 -51 64 -146 93 -210 l51 -116 31 59 c18 33 52 85 75 115 75 98 306
299 284 248 -23 -56 -47 -160 -55 -246 -20 -201 17 -421 135 -813 108 -357
120 -445 67 -498 -24 -24 -92 -28 -116 -8 -49 41 -72 144 -85 382 -16 264 -43
379 -106 441 -33 33 -38 34 -295 56 l-205 17 -27 105 c-83 318 -76 594 22 853
12 32 24 56 27 53 3 -3 10 -49 14 -101z m-4357 -957 c3 -13 8 -108 11 -213 10
-313 38 -453 129 -640 188 -389 577 -654 1121 -764 403 -81 1009 -88 1440 -15
718 121 1192 513 1300 1076 17 86 34 330 35 480 0 48 4 89 9 92 8 5 495 -32
650 -50 l54 -6 -7 -201 c-4 -111 -12 -238 -17 -282 -85 -706 -496 -1265 -1160
-1579 -461 -218 -1099 -321 -1777 -287 -335 17 -538 44 -792 107 -954 235
-1569 870 -1674 1729 -24 191 -35 506 -18 512 11 5 596 59 664 62 21 1 29 -4
32 -21z m3746 -99 c0 -62 -4 -99 -10 -97 -5 2 -30 27 -54 57 l-44 54 51 43
c28 24 52 44 54 44 2 0 3 -45 3 -101z m-4490 -219 c10 -224 26 -345 62 -487
11 -46 19 -85 17 -87 -5 -3 -242 15 -247 19 -2 2 5 20 16 42 36 72 46 135 62
399 10 155 34 285 62 336 16 30 15 36 28 -222z m5566 205 c28 -68 44 -163 54
-330 14 -225 27 -309 56 -374 13 -30 23 -55 22 -56 -5 -4 -243 -22 -247 -19
-2 2 6 43 17 91 43 178 56 288 67 566 4 86 9 157 12 157 2 0 11 -16 19 -35z
m-4246 -1052 c0 -46 -4 -83 -8 -83 -5 0 -17 9 -28 21 -15 17 -20 40 -22 113
l-4 91 31 -29 c30 -29 31 -33 31 -113z m2935 35 c-6 -78 -10 -96 -28 -110 -12
-10 -26 -18 -31 -18 -4 0 -5 39 -1 88 6 78 10 89 33 109 15 12 29 22 31 23 2
0 0 -42 -4 -92z m-2805 -126 c0 -89 2 -87 -52 -50 -27 19 -28 23 -28 104 l0
84 40 -28 39 -27 1 -83z m2693 -42 c-4 -4 -25 -17 -45 -29 l-38 -23 0 80 0 80
43 32 42 31 3 -82 c2 -45 -1 -85 -5 -89z m-2563 -25 c0 -41 -2 -75 -5 -75 -3
0 -21 7 -40 14 l-35 15 0 81 0 80 40 -20 40 -20 0 -75z m2440 30 l0 -75 -40
-20 -40 -20 0 78 0 78 33 17 c17 8 35 16 40 16 4 1 7 -33 7 -74z m-2356 9 c13
-5 16 -22 16 -85 l0 -79 -25 12 c-23 10 -25 16 -25 85 0 72 3 79 34 67z m2226
-69 c0 -65 -3 -76 -21 -85 -11 -7 -22 -10 -23 -8 -2 2 -6 35 -9 74 -5 66 -4
72 16 82 36 17 37 15 37 -63z m-1986 -15 c141 -37 297 -65 454 -81 l122 -12 0
-68 0 -69 -43 0 c-119 0 -456 56 -604 101 l-73 22 0 75 c0 65 2 73 17 68 9 -4
66 -20 127 -36z m1856 -35 l0 -74 -67 -21 c-143 -44 -484 -100 -610 -100 l-43
0 0 68 0 68 158 17 c177 19 364 55 473 91 41 13 77 24 82 25 4 1 7 -33 7 -74z
m-1150 -135 c0 -68 -1 -70 -25 -70 -24 0 -25 2 -25 70 0 68 1 70 25 70 24 0
25 -2 25 -70z m130 0 l0 -70 -34 0 c-33 0 -33 1 -40 53 -10 88 -11 87 34 87
l40 0 0 -70z m120 0 l0 -70 -40 0 -40 0 0 70 0 70 40 0 40 0 0 -70z m100 0 c0
-68 -1 -70 -25 -70 -24 0 -25 2 -25 70 0 68 1 70 25 70 24 0 25 -2 25 -70z
m-1622 -702 c19 -19 16 -287 -4 -316 -8 -12 -19 -22 -25 -22 -5 0 -9 72 -9
175 0 179 4 197 38 163z m2882 -117 c0 -70 -3 -149 -6 -174 l-7 -46 -18 23
c-16 21 -19 42 -19 159 0 110 3 139 16 151 8 9 20 16 25 16 5 0 9 -56 9 -129z
m-2777 82 c15 -5 17 -19 17 -103 0 -84 -2 -98 -17 -103 -10 -2 -26 -8 -35 -12
-17 -7 -18 3 -18 115 0 112 1 122 18 115 9 -4 25 -10 35 -12z m2690 -109 l-6
-111 -28 11 -29 10 0 96 c0 96 0 96 28 106 15 6 30 8 34 4 4 -3 5 -56 1 -116z
m-2570 69 c4 -2 7 -45 7 -95 0 -82 -2 -89 -17 -83 -10 4 -26 10 -35 12 -15 5
-18 18 -18 94 l0 89 28 -6 c15 -4 30 -9 35 -11z m2465 -70 l-3 -87 -33 -13
-33 -13 3 92 c3 97 5 100 61 107 4 1 6 -38 5 -86z m-2390 49 c9 -7 12 -39 10
-128 l-3 -119 -23 32 c-22 31 -23 39 -16 128 4 52 9 95 13 95 3 0 12 -4 19 -8z
m2267 -215 c-9 -15 -21 -27 -26 -27 -5 0 -9 42 -9 93 0 50 -3 102 -6 114 -5
18 -1 25 17 32 24 8 24 8 33 -89 7 -85 6 -100 -9 -123z m-1267 -14 c2 -73 -1
-98 -14 -118 -9 -14 -20 -25 -25 -25 -5 0 -9 54 -9 121 0 119 0 120 23 117 21
-3 22 -8 25 -95z m110 30 c3 -60 2 -63 -27 -78 -17 -8 -32 -15 -36 -15 -3 0
-5 36 -5 81 l0 80 33 -3 c32 -3 32 -3 35 -65z m102 -13 c0 -44 -2 -80 -5 -80
-4 0 -19 7 -35 15 -32 17 -36 34 -24 108 6 33 10 37 35 37 l29 0 0 -80z m82
-22 c-4 -149 -3 -145 -27 -111 -17 24 -20 41 -17 121 3 87 5 92 26 92 21 0 22
-2 18 -102z m-1380 -4 c33 -32 33 -36 11 -103 -25 -79 -7 -84 59 -15 55 58 56
58 123 62 61 4 67 3 63 -14 -2 -10 -19 -28 -38 -40 -88 -56 -100 -72 -100
-129 0 -35 -5 -59 -16 -69 -21 -21 -34 -20 -34 2 0 19 -41 62 -77 81 -62 32
-169 -4 -198 -66 -18 -38 -18 -38 -39 -17 -11 10 -16 34 -16 69 0 48 -3 56
-35 84 -20 17 -41 31 -47 31 -17 0 -58 41 -58 58 0 11 13 13 66 10 66 -4 67
-5 122 -62 64 -67 83 -64 58 10 -23 67 -21 78 21 114 30 27 42 31 71 26 19 -3
48 -18 64 -32z m2545 16 c49 -29 54 -46 32 -115 -25 -82 -8 -91 51 -26 25 27
55 54 67 60 22 11 133 16 133 5 0 -20 -28 -48 -70 -69 -58 -29 -80 -65 -80
-128 0 -28 -6 -49 -15 -57 -9 -7 -16 -11 -18 -9 -1 2 -9 17 -17 33 -49 94
-207 101 -261 12 -10 -17 -20 -35 -22 -41 -2 -6 -11 -4 -20 4 -11 9 -17 29
-17 60 0 64 -17 91 -79 126 -31 17 -58 40 -63 54 l-8 23 71 -4 72 -4 53 -59
c65 -74 82 -68 55 20 -22 69 -17 86 32 115 40 25 64 25 104 0z m-1270 -136
c38 -24 42 -44 22 -109 -26 -85 -10 -94 49 -28 53 58 82 73 148 73 41 0 45 -2
42 -22 -2 -16 -19 -32 -53 -50 -61 -33 -85 -68 -85 -129 0 -29 -6 -51 -15 -59
-18 -15 -17 -15 -39 28 -19 37 -82 72 -131 72 -49 0 -112 -35 -131 -72 -22
-43 -21 -43 -39 -28 -8 7 -15 29 -15 50 0 68 -18 99 -76 132 -47 26 -74 52
-74 72 0 10 97 6 127 -4 15 -6 49 -34 75 -63 60 -67 77 -57 48 27 -20 54 -20
60 -5 83 33 49 99 62 152 27z m-1286 -157 c26 -17 35 -31 37 -58 4 -51 -34
-84 -98 -84 -64 0 -102 33 -98 84 2 27 11 41 37 58 43 29 79 29 122 0z m2548
12 c37 -13 65 -60 57 -95 -8 -30 -61 -64 -99 -64 -101 0 -140 111 -54 154 38
19 54 19 96 5z m-1259 -148 c79 -57 21 -151 -85 -137 -43 5 -85 43 -85 76 0
25 46 78 73 83 32 7 69 -2 97 -22z"/>
<path d="M2374 7715 c-17 -17 -75 -56 -130 -87 -155 -88 -188 -134 -188 -263
-1 -55 5 -97 19 -135 l19 -55 12 97 c13 114 30 146 111 212 63 53 144 148 174
208 27 53 21 61 -17 23z m-79 -119 c-20 -25 -66 -70 -101 -102 -70 -61 -104
-114 -105 -166 0 -32 -1 -32 -10 -8 -23 57 18 182 75 224 39 30 170 105 175
100 2 -1 -13 -23 -34 -48z"/>
<path d="M3659 7707 c-20 -18 -75 -53 -122 -80 -109 -60 -140 -87 -167 -143
-20 -39 -22 -57 -18 -142 3 -74 9 -106 26 -137 l21 -40 1 75 c0 124 10 143
119 250 92 90 181 206 181 236 0 18 1 19 -41 -19z m-59 -97 c-18 -23 -64 -69
-102 -103 -82 -74 -98 -96 -114 -162 l-12 -50 -1 65 c-1 76 20 130 68 175 30
28 166 112 184 114 5 1 -6 -17 -23 -39z"/>
<path d="M4934 7715 c-22 -22 -76 -60 -120 -84 -114 -63 -148 -93 -174 -153
-19 -44 -22 -65 -18 -137 3 -59 11 -100 25 -131 l21 -45 1 75 c2 123 11 144
110 240 105 102 155 164 182 226 11 25 19 46 17 47 -1 1 -21 -16 -44 -38z
m-72 -115 c-22 -27 -68 -73 -102 -102 -64 -54 -94 -99 -109 -165 -8 -35 -9
-33 -10 27 -1 114 46 179 187 254 37 19 69 36 70 36 2 0 -14 -22 -36 -50z"/>
<path d="M2126 5663 c-3 -10 1 -49 8 -88 8 -38 13 -71 11 -73 -1 -2 -20 29
-41 69 -43 80 -66 101 -86 81 -10 -10 -9 -25 4 -75 9 -34 20 -71 24 -82 4 -11
-16 10 -45 48 -52 67 -85 85 -98 51 -3 -8 12 -50 33 -94 l39 -78 -66 59 c-109
96 -146 70 -66 -45 23 -33 47 -67 51 -75 5 -7 -24 10 -65 38 -73 51 -111 61
-117 31 -1 -9 23 -44 54 -79 l58 -63 -63 32 c-119 59 -149 21 -47 -61 36 -29
64 -54 63 -56 -2 -1 -27 6 -55 17 -79 30 -121 25 -107 -13 4 -8 39 -34 80 -58
41 -24 73 -44 72 -45 -1 -1 -32 5 -70 13 -37 8 -74 13 -82 9 -18 -7 -20 -42
-2 -49 6 -3 48 -22 92 -41 l80 -36 -85 3 c-80 2 -85 1 -88 -19 -4 -25 33 -42
154 -73 l69 -18 -70 -7 c-82 -8 -115 -20 -115 -40 0 -22 15 -28 104 -41 l81
-12 -57 -17 c-50 -14 -58 -20 -58 -40 0 -31 38 -41 129 -31 l66 7 -47 -31
c-31 -20 -48 -38 -48 -51 0 -17 6 -20 49 -20 27 0 68 7 91 15 63 22 69 19 27
-16 -26 -22 -37 -38 -35 -53 5 -33 49 -32 113 2 30 17 55 28 55 26 0 -3 -7
-19 -16 -35 -32 -62 2 -76 71 -29 89 61 140 150 170 293 5 27 12 20 121 -115
63 -79 121 -144 129 -146 21 -5 64 30 65 51 0 10 -54 78 -120 150 -66 73 -120
135 -120 138 0 4 37 8 83 11 60 3 97 11 139 30 65 30 148 107 148 138 0 27
-25 36 -57 21 -35 -16 -38 -9 -10 25 37 44 59 93 52 114 -9 27 -25 25 -73 -10
-23 -17 -42 -28 -42 -26 0 2 13 33 30 68 55 116 29 168 -43 87 -22 -24 -37
-36 -34 -26 14 38 30 145 24 161 -14 35 -46 18 -76 -41 l-29 -58 5 90 c5 76 3
93 -11 104 -25 21 -42 -1 -63 -80 -9 -38 -20 -69 -24 -69 -3 0 -9 35 -12 78
-8 96 -23 142 -47 142 -23 0 -30 -19 -30 -83 0 -84 -14 -83 -33 2 -20 88 -36
117 -61 108 -13 -5 -16 -21 -16 -84 l0 -78 -35 80 c-19 44 -35 81 -35 82 0 2
-9 3 -19 3 -11 0 -22 -8 -25 -17z m82 -158 c22 -60 47 -135 57 -165 10 -30 21
-58 24 -63 4 -4 1 50 -5 120 -7 71 -15 153 -17 183 -5 55 -5 55 9 22 8 -18 26
-94 40 -170 14 -75 29 -144 32 -152 3 -8 10 41 14 110 5 69 11 145 15 170 l6
45 8 -35 c5 -19 11 -82 14 -140 8 -136 14 -179 25 -160 4 8 23 74 41 145 33
125 34 128 37 80 2 -27 -2 -86 -8 -130 -6 -44 -13 -96 -15 -115 -4 -25 13 1
60 95 61 121 65 127 61 84 -3 -26 -19 -90 -36 -143 -17 -54 -30 -101 -28 -106
2 -5 34 33 72 83 41 53 72 85 74 77 3 -7 -21 -63 -52 -123 -31 -61 -54 -113
-51 -115 3 -3 41 23 85 57 44 34 80 58 80 52 0 -13 -82 -120 -119 -155 -17
-17 -31 -33 -31 -38 0 -4 36 6 80 22 l80 30 -16 -26 c-37 -56 -137 -105 -239
-118 l-50 -6 54 28 c30 15 57 33 59 40 2 8 -8 6 -30 -7 -18 -10 -44 -22 -58
-26 -21 -6 -16 2 29 49 29 32 51 60 48 63 -4 3 -29 -20 -58 -51 -28 -31 -54
-54 -57 -51 -3 2 2 13 10 22 24 27 70 123 65 136 -2 6 -15 -13 -29 -43 -14
-30 -35 -66 -46 -80 l-22 -25 15 37 c21 52 45 158 36 158 -4 0 -13 -24 -20
-52 -7 -29 -18 -66 -25 -83 -12 -27 -13 -20 -10 70 l3 100 -10 -80 c-5 -44
-13 -91 -18 -105 -8 -20 -10 -15 -10 31 -1 80 -12 149 -24 149 -5 0 -7 -10 -3
-22 3 -13 8 -59 11 -103 4 -65 3 -72 -5 -40 -28 115 -43 165 -51 165 -11 0
-12 6 11 -68 32 -101 23 -115 -14 -24 -19 46 -36 86 -40 89 -12 12 -6 -17 15
-69 54 -135 59 -167 13 -76 -37 72 -74 131 -80 125 -3 -3 16 -42 42 -86 26
-45 45 -83 42 -86 -3 -4 -76 88 -110 139 -4 6 -10 7 -13 4 -4 -4 21 -43 54
-87 34 -45 59 -81 54 -81 -4 0 -37 33 -74 72 -37 40 -71 69 -75 65 -5 -4 26
-42 67 -84 80 -83 78 -83 -22 -5 -37 29 -70 52 -74 52 -14 0 19 -32 80 -78 33
-25 65 -50 70 -55 14 -13 -50 19 -118 60 -32 19 -61 33 -64 30 -6 -7 51 -44
125 -81 28 -14 52 -28 52 -31 0 -6 -117 38 -159 59 -17 9 -31 12 -31 6 0 -5 1
-10 3 -10 1 0 38 -16 82 -35 88 -38 76 -46 -24 -15 -36 11 -67 18 -69 15 -8
-8 43 -27 121 -46 l82 -19 -103 4 c-60 2 -99 -1 -94 -6 5 -5 52 -10 104 -11
53 -1 91 -5 85 -9 -6 -3 -49 -12 -96 -20 -63 -9 -76 -14 -51 -16 20 -2 67 3
105 11 59 12 66 12 49 0 -10 -8 -50 -24 -89 -36 -38 -11 -62 -23 -52 -25 20
-4 76 13 132 41 l40 20 -20 -23 c-11 -12 -41 -35 -67 -50 -27 -14 -45 -30 -42
-33 9 -9 57 18 99 54 43 38 45 26 5 -29 -33 -45 -35 -52 -20 -52 5 0 23 24 40
53 19 33 30 45 30 32 -1 -30 -43 -127 -74 -168 -30 -38 -94 -92 -102 -84 -3 2
11 34 31 69 39 72 44 89 18 65 -34 -29 -167 -107 -185 -107 -12 0 6 23 55 69
39 38 69 72 66 75 -3 3 -48 -9 -100 -28 -102 -36 -159 -50 -159 -38 0 4 43 31
96 60 52 30 93 56 91 59 -3 2 -49 -3 -104 -12 -54 -9 -120 -15 -148 -13 -49 3
-47 4 85 43 l135 40 -120 8 c-136 8 -209 17 -203 23 2 2 71 11 153 19 82 9
151 18 153 20 5 4 -1 6 -133 34 -114 24 -208 51 -201 58 4 5 234 -12 304 -21
47 -7 5 14 -108 53 -130 45 -215 80 -209 86 3 2 82 -16 177 -39 94 -24 172
-42 172 -41 0 2 -57 33 -127 70 -157 82 -215 116 -210 121 5 5 153 -51 264
-100 45 -20 84 -36 88 -36 4 0 -53 43 -126 96 -74 53 -147 108 -164 122 -29
24 -29 25 -5 17 28 -8 156 -80 235 -130 28 -18 62 -38 75 -45 l25 -12 -20 20
c-11 11 -68 65 -127 119 -209 193 -187 197 47 8 55 -45 106 -85 114 -90 21
-12 7 7 -64 95 -83 100 -168 220 -163 226 3 2 70 -62 149 -143 139 -143 142
-146 109 -88 -18 33 -44 76 -56 96 -26 42 -104 196 -104 205 0 12 61 -70 148
-198 47 -70 87 -127 88 -125 1 1 -24 68 -56 148 -32 81 -63 164 -69 185 -9 36
-9 38 5 19 9 -11 52 -91 95 -179 44 -87 82 -157 84 -155 1 2 -14 72 -35 154
-64 255 -62 282 8 90z m296 -756 c117 -129 127 -142 113 -157 -15 -14 -18 -13
-37 11 -11 14 -65 81 -120 149 -55 68 -100 126 -100 131 0 20 26 -4 144 -134z"/>
<path d="M3064 4566 c-3 -8 0 -42 6 -76 6 -34 10 -64 8 -66 -2 -1 -21 27 -43
64 -28 46 -47 68 -62 70 -19 3 -23 -1 -23 -26 0 -16 9 -55 20 -87 11 -32 20
-60 20 -63 0 -2 -19 22 -43 54 -52 71 -72 88 -92 80 -24 -9 -18 -39 24 -121
l39 -75 -70 65 c-69 64 -91 75 -103 54 -12 -18 4 -55 50 -118 25 -33 43 -61
40 -61 -3 0 -29 17 -58 38 -68 51 -96 65 -113 58 -27 -11 -13 -41 49 -104 l62
-63 -77 37 c-75 35 -108 39 -108 12 0 -20 10 -31 75 -83 33 -26 62 -49 64 -51
2 -2 -33 9 -78 24 -64 21 -83 24 -93 14 -20 -20 1 -42 76 -86 36 -21 65 -40
63 -43 -2 -2 -34 4 -71 12 -72 17 -86 14 -86 -15 0 -20 23 -35 120 -77 l55
-24 -77 5 c-59 3 -80 1 -89 -10 -9 -11 -9 -17 1 -29 13 -16 158 -65 191 -65
43 0 5 -20 -39 -21 -77 -2 -107 -12 -110 -36 -4 -26 16 -33 118 -42 l75 -7
-56 -17 c-67 -20 -88 -39 -68 -63 11 -13 29 -15 102 -12 93 4 94 3 27 -34 -38
-21 -39 -61 -3 -66 20 -3 99 14 158 33 13 4 6 -6 -18 -27 -22 -20 -37 -42 -37
-55 0 -20 5 -23 38 -23 22 0 53 10 77 25 53 32 58 31 38 -10 -20 -42 -8 -61
30 -51 76 19 189 179 203 287 4 28 10 48 14 47 4 -2 55 -62 113 -134 135 -166
128 -161 166 -133 17 13 31 30 31 38 0 9 -56 78 -125 154 l-126 137 39 0 c115
0 243 50 307 122 57 62 40 103 -31 73 l-35 -15 29 38 c39 50 52 76 52 106 0
35 -32 35 -72 1 -17 -14 -32 -24 -35 -21 -2 2 7 26 21 53 34 68 42 116 22 133
-14 11 -22 7 -58 -31 -34 -36 -40 -39 -34 -19 4 14 10 58 13 98 5 68 5 72 -16
72 -15 0 -29 -15 -51 -57 l-30 -58 6 66 c8 86 -1 129 -27 129 -21 0 -29 -15
-55 -105 -13 -44 -19 -53 -21 -35 -22 188 -32 217 -65 205 -11 -5 -18 -30 -23
-88 l-8 -82 -17 70 c-29 111 -37 127 -63 123 -21 -3 -22 -7 -20 -83 3 -88 5
-89 -45 28 -18 41 -30 57 -44 57 -10 0 -21 -6 -24 -14z m112 -243 c26 -78 50
-141 52 -138 2 2 -4 81 -13 175 -9 95 -15 174 -12 176 7 7 35 -103 59 -233 12
-68 25 -118 29 -111 4 6 10 78 14 159 11 219 28 192 41 -63 4 -71 10 -128 14
-128 3 0 21 56 38 125 18 68 36 135 42 147 15 38 12 -56 -6 -183 -8 -61 -13
-113 -11 -115 2 -2 30 51 62 118 32 68 60 118 62 112 5 -14 -27 -143 -56 -226
-11 -32 -17 -58 -13 -58 4 1 38 41 76 91 38 49 71 88 73 85 7 -7 -34 -105 -75
-176 -27 -45 -36 -70 -28 -70 8 0 46 25 86 56 39 31 73 54 76 52 7 -7 -54 -89
-109 -145 -28 -29 -46 -53 -40 -53 6 0 41 11 78 25 37 14 70 23 74 19 3 -3
-13 -23 -37 -45 -50 -44 -134 -78 -207 -85 l-50 -5 51 25 c49 23 77 46 55 46
-5 0 -12 -4 -15 -9 -4 -5 -26 -16 -51 -24 l-45 -16 50 50 c28 28 50 57 50 65
0 8 -27 -14 -61 -48 -33 -35 -52 -49 -41 -33 21 33 72 131 72 140 0 3 -4 5 -9
5 -5 0 -14 -15 -20 -32 -6 -18 -25 -53 -42 -78 -17 -25 -28 -36 -24 -25 35
104 46 148 43 167 -2 15 -9 0 -20 -42 -17 -66 -55 -161 -44 -110 3 14 8 63 11
110 l4 85 -13 -85 c-21 -130 -21 -131 -29 -32 -4 52 -12 101 -17 110 -9 13
-10 6 -6 -28 10 -82 16 -175 11 -165 -2 6 -11 42 -19 80 -16 78 -34 130 -42
123 -2 -3 4 -39 16 -79 18 -67 28 -129 13 -89 -26 71 -66 160 -73 160 -5 0 7
-38 26 -85 47 -117 42 -126 -12 -25 -50 94 -52 96 -60 88 -3 -4 6 -23 19 -45
31 -48 82 -151 69 -138 -5 6 -35 45 -67 88 -32 43 -60 75 -63 72 -5 -5 10 -28
85 -130 33 -45 29 -43 -45 30 -45 44 -82 76 -82 71 0 -4 30 -42 68 -84 l67
-77 -70 54 c-38 30 -76 58 -82 64 -9 6 -13 6 -13 -1 0 -6 25 -30 56 -54 96
-74 101 -81 31 -44 -37 20 -79 43 -92 52 -14 9 -25 12 -25 8 0 -11 23 -26 115
-77 77 -42 58 -40 -49 4 -39 16 -72 27 -74 25 -6 -6 73 -45 133 -67 69 -24 36
-23 -54 1 -40 12 -79 19 -85 17 -16 -6 120 -47 155 -47 16 0 29 -4 29 -10 0
-11 -48 -12 -132 -1 -32 4 -58 4 -58 0 0 -10 66 -19 139 -19 35 0 62 -2 59 -5
-3 -3 -45 -12 -94 -20 l-89 -15 80 5 c45 2 90 7 100 10 11 3 4 -3 -15 -14 -19
-11 -56 -25 -82 -31 -27 -7 -48 -16 -48 -20 0 -11 75 7 129 31 l44 19 -19 -21
c-10 -12 -38 -32 -62 -46 -24 -14 -41 -27 -38 -30 5 -6 83 34 91 47 3 5 15 15
27 21 23 13 23 10 -25 -60 -17 -24 -24 -42 -16 -39 8 2 29 29 47 59 32 52 33
52 27 19 -13 -68 -64 -158 -118 -205 -28 -25 -55 -45 -60 -45 -4 0 11 34 34
75 22 41 37 75 33 75 -4 0 -21 -11 -38 -23 -41 -32 -114 -73 -151 -87 -25 -9
-17 2 44 64 41 42 73 78 70 80 -2 3 -45 -10 -95 -29 -94 -35 -193 -57 -164
-36 8 7 52 32 97 57 86 47 115 72 72 61 -82 -20 -253 -36 -264 -25 -3 3 45 20
107 38 62 18 119 36 127 40 7 4 -52 9 -132 12 -201 8 -216 22 -41 37 77 7 146
17 154 22 8 4 12 9 9 9 -54 2 -346 77 -337 85 2 3 78 -2 167 -11 90 -8 165
-13 168 -11 2 3 -26 15 -64 27 -112 37 -272 101 -278 111 -3 5 0 7 7 4 24 -8
337 -85 345 -85 4 0 -48 30 -117 66 -158 83 -213 115 -207 120 5 6 133 -43
267 -101 100 -43 101 -44 -63 75 -146 105 -193 144 -162 133 22 -7 186 -97
225 -123 104 -69 96 -54 -45 84 -167 164 -153 166 47 6 73 -59 134 -106 136
-105 2 1 -36 52 -84 111 -48 60 -105 136 -127 168 l-40 60 32 -23 c18 -13 85
-81 149 -151 64 -70 118 -127 120 -125 1 1 -24 48 -57 103 -33 56 -79 138
-101 184 -51 105 -30 82 112 -122 55 -80 99 -140 97 -135 -2 6 -32 80 -65 165
-34 85 -65 169 -68 185 l-7 30 20 -32 c11 -17 54 -100 97 -183 42 -83 78 -150
79 -148 2 2 -14 68 -34 148 -21 80 -41 165 -44 190 l-6 45 18 -40 c10 -22 40
-104 67 -182z m335 -744 c44 -50 55 -69 47 -77 -7 -7 -15 -12 -19 -12 -11 0
-239 288 -239 302 1 13 94 -81 211 -213z"/>
<path d="M4004 3475 c-6 -14 0 -72 12 -135 3 -14 -15 10 -41 53 -31 52 -52 77
-64 77 -30 0 -32 -26 -7 -106 14 -42 23 -74 21 -72 -2 1 -24 30 -50 63 -49 63
-69 80 -85 70 -18 -11 -10 -49 25 -119 19 -39 35 -72 35 -75 0 -2 -29 24 -65
58 -46 45 -71 62 -87 59 -12 -2 -23 -8 -25 -14 -2 -7 21 -49 52 -94 l56 -82
-73 51 c-124 88 -162 56 -60 -51 l57 -61 -62 32 c-126 63 -154 23 -46 -63 35
-27 61 -51 60 -53 -2 -1 -27 6 -55 17 -29 11 -66 20 -83 20 -25 0 -30 -4 -27
-21 2 -15 28 -37 80 -68 42 -25 76 -47 74 -48 -1 -1 -28 5 -60 13 -71 18 -110
15 -114 -9 -3 -14 17 -27 89 -61 l93 -43 -84 1 c-72 1 -85 -2 -88 -16 -4 -23
35 -42 144 -70 l89 -23 -90 -10 c-82 -9 -90 -12 -93 -32 -4 -28 17 -37 113
-48 l70 -8 -54 -16 c-59 -18 -84 -42 -63 -63 8 -8 42 -11 99 -10 l87 2 -48
-30 c-92 -59 -25 -91 104 -51 l65 20 -42 -40 c-47 -44 -49 -49 -31 -67 19 -19
44 -14 109 18 l60 31 -16 -30 c-49 -96 30 -88 123 13 52 57 82 114 102 199
l16 69 118 -146 c65 -80 124 -146 132 -146 16 0 64 43 64 58 0 5 -57 72 -126
148 l-126 139 79 7 c92 8 129 18 187 52 54 31 118 102 114 124 -4 18 -48 22
-82 7 -14 -6 -9 5 17 40 40 51 53 85 43 110 -8 23 -29 18 -71 -15 -21 -16 -39
-30 -42 -30 -2 0 7 21 21 48 29 58 47 119 39 138 -10 26 -41 14 -76 -28 l-35
-42 14 55 c19 71 15 143 -8 147 -12 2 -26 -14 -47 -55 l-30 -58 -1 93 c0 76
-3 94 -16 99 -24 9 -39 -17 -60 -100 l-18 -72 -12 90 c-17 131 -22 147 -48
143 -24 -3 -32 -32 -36 -118 -2 -54 -2 -54 -11 -20 -42 153 -50 171 -72 168
-21 -3 -22 -7 -19 -87 1 -47 1 -83 -2 -80 -2 2 -16 36 -31 74 -15 39 -32 76
-38 83 -13 17 -36 15 -43 -3z m113 -257 c25 -76 48 -137 50 -135 2 2 -4 77
-12 166 -9 88 -15 169 -13 179 5 21 40 -119 64 -253 16 -89 19 -96 25 -65 4
19 10 98 14 175 9 175 21 155 38 -65 7 -85 15 -150 19 -144 4 6 23 70 42 144
19 73 38 135 41 138 9 10 5 -64 -11 -188 -8 -67 -14 -124 -11 -126 2 -2 28 48
58 112 29 63 57 117 61 120 13 8 -4 -69 -39 -179 -19 -60 -33 -111 -30 -113 2
-2 37 39 77 91 40 52 75 94 77 91 7 -7 -35 -105 -76 -177 -23 -39 -39 -74 -37
-76 6 -6 53 26 119 80 26 21 47 33 47 27 0 -17 -61 -98 -109 -145 -23 -21 -41
-43 -41 -47 0 -4 36 6 80 22 44 16 80 26 80 22 0 -10 -58 -64 -90 -84 -42 -25
-121 -48 -164 -47 l-41 1 40 14 c45 16 81 41 73 49 -3 3 -21 -3 -39 -14 -19
-10 -45 -22 -59 -26 -23 -6 -23 -5 7 20 36 29 78 83 70 91 -2 3 -30 -21 -61
-53 l-57 -58 30 50 c36 60 64 125 54 125 -5 0 -20 -26 -35 -58 -15 -31 -36
-68 -46 -81 -16 -19 -14 -7 10 63 16 48 27 95 25 104 -5 20 -4 22 -36 -86 -13
-41 -24 -72 -26 -70 -2 2 0 33 5 68 12 85 12 130 0 130 -6 0 -11 -30 -11 -67
-1 -38 -4 -81 -8 -98 -6 -24 -9 -14 -15 47 -12 126 -25 146 -21 33 4 -80 3
-91 -5 -56 -16 74 -41 153 -46 148 -3 -3 4 -44 16 -92 12 -47 19 -91 17 -98
-3 -7 -6 -4 -6 6 -1 16 -58 164 -68 176 -1 2 -5 2 -8 -1 -3 -3 8 -38 25 -78
49 -120 39 -115 -35 15 -16 27 -30 44 -32 38 -2 -6 7 -29 20 -50 30 -47 69
-123 63 -123 -2 0 -29 34 -60 75 -31 41 -61 75 -67 75 -6 0 10 -26 34 -57 81
-107 83 -120 6 -45 -102 99 -113 91 -14 -10 80 -81 64 -79 -38 5 -26 22 -51
37 -54 33 -7 -7 -3 -11 86 -78 35 -27 59 -48 54 -48 -4 0 -44 21 -87 46 -43
25 -80 44 -82 41 -7 -7 15 -22 96 -66 91 -49 74 -53 -32 -7 -43 19 -78 30 -78
25 0 -5 1 -9 3 -9 1 0 38 -16 82 -35 44 -19 73 -35 65 -35 -14 0 -89 19 -137
34 -13 4 -23 3 -23 -2 0 -5 28 -16 63 -25 151 -38 149 -37 38 -33 -64 3 -99 1
-90 -5 8 -5 55 -9 104 -9 110 -1 96 -18 -21 -27 -41 -3 -77 -10 -80 -14 -3 -5
5 -9 18 -9 23 0 134 16 173 25 11 3 -2 -6 -30 -20 -27 -14 -67 -28 -87 -31
-21 -4 -38 -11 -38 -16 0 -14 55 -1 119 28 29 13 56 24 59 24 9 0 -73 -62
-103 -78 -19 -10 -25 -17 -16 -20 7 -2 40 15 74 38 62 44 63 43 15 -27 -16
-24 -24 -43 -18 -43 6 0 25 23 42 50 17 28 33 49 35 47 6 -6 -36 -118 -57
-153 -22 -35 -106 -114 -122 -114 -5 0 10 35 34 77 23 42 35 73 27 68 -8 -5
-40 -26 -72 -47 -54 -37 -116 -68 -134 -68 -4 0 26 34 67 75 41 41 69 75 62
75 -6 0 -42 -12 -79 -26 -79 -29 -183 -55 -183 -45 0 3 45 31 100 61 55 30 96
56 91 58 -5 2 -56 -4 -114 -12 -116 -18 -186 -21 -171 -7 5 4 61 23 124 41 63
18 119 36 124 41 6 5 -46 9 -125 10 -73 1 -147 5 -164 9 l-30 7 35 6 c36 7
229 27 255 27 8 0 15 4 15 8 0 4 -51 18 -113 30 -63 12 -138 31 -168 41 l-54
20 37 0 c21 1 82 -4 136 -10 55 -6 112 -9 128 -7 24 3 18 7 -41 27 -124 42
-280 104 -269 108 6 2 82 -14 168 -37 86 -22 162 -40 169 -40 6 0 -37 26 -98
58 -151 79 -227 123 -222 129 5 4 199 -72 310 -121 20 -9 37 -14 37 -12 0 2
-60 47 -132 100 -73 52 -146 107 -163 121 l-30 25 30 -13 c57 -24 150 -75 238
-131 49 -31 87 -52 85 -48 -2 4 -67 67 -146 141 -79 73 -141 136 -138 138 7 7
90 -53 214 -155 57 -46 105 -83 107 -81 1 2 -33 49 -77 104 -102 127 -172 224
-165 231 2 3 71 -64 152 -148 82 -84 139 -137 128 -118 -88 148 -118 200 -148
263 l-36 72 31 -35 c17 -19 72 -95 121 -167 49 -73 91 -133 93 -133 1 0 -26
71 -60 158 -35 86 -66 171 -70 187 -6 28 -5 29 9 10 8 -11 51 -90 96 -175 44
-85 81 -152 81 -149 0 3 -15 66 -34 140 -18 74 -36 154 -40 179 l-6 45 20 -44
c12 -25 41 -107 67 -183z m267 -662 c113 -125 124 -140 108 -152 -9 -7 -20
-10 -23 -6 -8 10 -220 274 -233 291 -8 10 -6 12 6 10 9 -2 72 -67 142 -143z"/>
<path d="M875 2660 c-88 -49 -164 -91 -168 -92 -5 -2 -6 -15 -2 -29 6 -24 11
-26 123 -38 64 -7 154 -18 200 -25 70 -10 82 -10 77 2 -3 7 -5 20 -5 27 0 9
-26 15 -87 20 -49 4 -106 10 -128 14 l-40 7 110 58 c61 33 111 60 113 61 6 5
-15 79 -23 81 -6 2 -82 -37 -170 -86z"/>
<path d="M5381 2714 c-11 -14 -23 -42 -27 -63 -3 -20 -10 -54 -14 -76 -5 -22
-8 -41 -6 -42 1 -2 55 -12 120 -23 65 -11 144 -27 176 -35 78 -20 76 -21 88
24 l10 40 -74 12 c-41 6 -74 15 -74 19 0 8 106 40 133 40 18 0 29 21 41 77 l7
32 -87 -29 c-104 -35 -124 -37 -124 -11 0 33 -47 61 -101 61 -39 0 -51 -4 -68
-26z m103 -64 c23 -9 46 -53 33 -66 -3 -3 -32 0 -66 7 -46 9 -61 16 -61 28 0
38 42 51 94 31z"/>
<path d="M5331 2403 c-51 -26 -85 -84 -89 -157 -2 -48 1 -68 17 -94 27 -43
101 -88 167 -103 72 -16 134 6 170 61 58 88 51 171 -20 237 -75 67 -175 90
-245 56z m125 -84 c65 -25 120 -72 129 -110 5 -19 0 -34 -18 -55 -21 -24 -32
-29 -71 -28 -62 1 -171 55 -197 97 -25 43 -24 53 10 88 36 35 69 37 147 8z"/>
<path d="M1060 2388 c-25 -11 -99 -40 -165 -65 -66 -24 -121 -45 -122 -47 -6
-5 21 -76 29 -76 5 0 71 24 146 54 75 29 153 59 174 65 l36 12 -15 39 c-18 45
-21 46 -83 18z"/>
<path d="M1115 2195 c-38 -25 -111 -68 -161 -97 l-91 -51 19 -34 c11 -18 22
-33 25 -33 3 0 32 16 65 36 32 20 61 34 63 32 3 -2 -15 -35 -40 -73 -25 -37
-45 -69 -45 -70 0 -2 11 -22 24 -45 l23 -41 54 90 c53 90 62 100 74 81 9 -15
72 -12 105 5 63 33 65 85 7 177 -23 37 -44 67 -47 67 -3 0 -36 -20 -75 -44z
m101 -72 c6 -21 2 -31 -20 -50 -15 -13 -39 -23 -55 -23 -26 0 -51 15 -51 31 0
8 99 68 112 69 4 0 11 -12 14 -27z"/>
<path d="M5133 2071 c-11 -14 -22 -31 -26 -37 -4 -7 14 -25 45 -45 29 -19 99
-69 156 -112 57 -43 105 -77 106 -75 0 2 12 18 24 36 13 19 22 35 20 36 -104
72 -158 111 -224 162 l-82 62 -19 -27z"/>
<path d="M1307 1993 c-16 -16 -15 -19 11 -46 l27 -28 -118 -116 -118 -116 30
-31 31 -31 113 113 c62 61 117 112 124 112 6 0 20 -12 31 -27 20 -27 20 -27
41 -9 l21 19 -82 86 c-45 47 -85 87 -88 89 -3 1 -13 -6 -23 -15z"/>
<path d="M4972 1880 c-90 -86 -91 -88 -72 -105 20 -18 21 -18 48 8 16 15 31
27 34 27 3 0 56 -53 116 -119 l110 -118 31 30 30 31 -116 120 -117 119 31 26
c30 25 31 27 14 47 -16 21 -18 20 -109 -66z"/>
<path d="M1501 1787 c-5 -18 -31 -104 -57 -192 l-46 -159 23 -18 c22 -19 23
-18 58 15 36 34 186 151 250 196 l33 24 -26 14 c-26 14 -30 12 -109 -54 -45
-37 -90 -74 -99 -81 -13 -10 -10 9 17 95 18 59 36 115 39 124 5 10 -5 23 -33
41 l-40 26 -10 -31z"/>
<path d="M4718 1684 l-66 -46 65 -96 c35 -53 81 -127 101 -163 l36 -67 37 25
38 25 -33 46 c-19 26 -39 58 -46 71 l-12 24 38 -23 c22 -13 57 -36 79 -50 l40
-27 42 26 42 26 -46 25 c-25 13 -66 37 -90 52 -38 24 -42 31 -33 47 15 29 12
73 -7 101 -46 67 -93 68 -185 4z m102 -34 c31 -31 36 -68 13 -92 -20 -19 -20
-19 -51 30 -35 53 -39 68 -19 75 23 10 37 7 57 -13z"/>
<path d="M1800 1587 c-13 -7 -35 -28 -48 -47 -30 -44 -25 -92 15 -152 44 -64
46 -76 19 -103 -16 -16 -31 -22 -46 -18 -28 7 -54 47 -47 73 3 11 1 20 -3 20
-14 0 -52 -69 -47 -84 8 -21 89 -56 129 -56 59 0 118 63 118 126 0 15 -18 58
-41 95 -33 55 -38 71 -30 87 24 45 84 28 89 -26 4 -40 12 -40 41 -1 26 36 20
49 -40 80 -44 22 -74 24 -109 6z"/>
<path d="M4414 1536 c-74 -34 -97 -76 -92 -165 7 -133 73 -211 177 -211 142 1
216 117 166 261 -44 125 -137 168 -251 115z m110 -57 c21 -18 43 -52 56 -87
36 -94 26 -163 -26 -182 -55 -21 -113 34 -145 140 -17 58 -19 75 -9 105 21 62
70 72 124 24z"/>
<path d="M2193 1404 c3 -33 12 -122 18 -199 7 -77 13 -141 13 -142 1 -1 13 -4
27 -8 24 -6 30 1 107 137 45 79 91 158 103 176 17 26 18 32 6 32 -9 0 -22 2
-30 5 -9 4 -28 -22 -62 -87 -26 -51 -53 -101 -60 -111 -12 -17 -13 -17 -18 5
-3 13 -9 69 -13 125 -6 99 -7 102 -33 108 -14 3 -35 9 -45 12 -18 5 -19 1 -13
-53z"/>
<path d="M4097 1431 c-70 -14 -78 -18 -74 -36 29 -121 66 -296 69 -320 3 -28
5 -30 43 -27 22 2 41 5 44 7 2 2 -4 38 -14 80 -9 42 -14 83 -11 91 3 8 18 14
33 14 41 0 56 13 48 40 -6 18 -12 20 -33 15 -15 -3 -36 -9 -48 -11 -17 -5 -22
0 -28 27 -13 69 -10 76 40 84 39 5 45 9 42 28 -4 28 -15 28 -111 8z"/>
<path d="M2557 1373 c-2 -5 -8 -52 -11 -105 -4 -54 -13 -136 -20 -183 l-12
-85 27 0 c27 0 27 0 34 97 11 151 13 152 78 37 31 -54 61 -111 68 -126 7 -16
17 -28 23 -28 6 0 21 -3 34 -6 20 -6 22 -3 22 32 0 42 26 285 35 320 4 16 -1
23 -17 27 -12 4 -24 4 -27 2 -2 -3 -9 -54 -14 -115 -5 -60 -13 -110 -16 -110
-6 0 -83 133 -120 208 -18 35 -26 42 -51 42 -16 0 -31 -3 -33 -7z"/>
<path d="M3571 1298 c-15 -76 -70 -303 -78 -324 -4 -12 1 -15 23 -12 26 3 30
8 38 54 8 47 11 53 38 58 60 12 66 9 83 -44 l17 -50 50 0 c36 0 49 3 45 13 -3
6 -39 92 -79 190 -67 165 -74 177 -98 177 -24 0 -27 -5 -39 -62z m52 -123 c16
-45 16 -45 -9 -51 -14 -4 -27 -4 -30 -1 -8 8 7 97 16 97 5 0 15 -20 23 -45z"/>
<path d="M2966 1164 c-4 -96 -9 -181 -12 -189 -4 -9 7 -14 39 -16 l44 -4 8
179 c4 98 9 185 12 193 4 10 -6 13 -39 13 l-45 0 -7 -176z"/>
<path d="M3180 1307 c0 -28 1 -29 40 -22 l40 7 0 -169 0 -168 43 -1 42 -1 -3
170 -4 170 44 -7 c42 -6 43 -6 43 22 l0 28 -122 0 -123 0 0 -29z"/>
<path d="M7546 6742 c-10 -2 -16 -11 -14 -20 3 -13 20 -19 77 -24 96 -10 141
-32 166 -83 19 -38 20 -67 26 -655 6 -576 8 -621 27 -702 68 -283 232 -458
498 -529 109 -30 373 -38 491 -16 143 27 266 88 373 184 106 96 171 220 211
398 20 94 22 133 28 695 8 656 7 652 70 684 17 9 58 19 92 23 56 6 83 22 65
40 -8 8 -704 8 -712 0 -16 -15 7 -37 39 -37 71 0 141 -20 169 -48 47 -46 50
-90 45 -736 -4 -657 -6 -672 -72 -814 -138 -294 -586 -356 -818 -113 -90 94
-136 211 -157 396 -13 118 -13 1125 0 1196 6 29 20 63 31 75 21 23 94 44 149
44 23 0 30 5 30 20 0 11 -6 20 -12 21 -60 2 -789 3 -802 1z"/>
<path d="M22702 6480 c-9 -11 -164 -361 -343 -778 -179 -416 -334 -773 -343
-792 -42 -82 -121 -130 -213 -130 -31 0 -55 -22 -40 -37 5 -4 534 -7 600 -3 4
0 7 8 7 19 0 16 -10 19 -61 23 -79 6 -104 30 -94 92 6 36 80 230 144 379 l20
47 292 -2 292 -3 94 -235 c51 -129 92 -242 90 -250 -1 -8 -12 -19 -25 -25 -24
-10 -29 -30 -11 -41 6 -3 255 -7 553 -9 297 -1 647 -5 776 -10 252 -8 342 -2
487 36 176 46 323 129 429 240 101 107 151 192 200 339 26 80 28 95 28 265 1
201 -8 250 -67 378 -120 257 -354 404 -712 447 -67 8 -267 12 -610 12 -280 0
-516 -1 -523 -1 -8 -1 -12 -9 -10 -18 3 -14 17 -19 68 -24 76 -6 115 -23 144
-62 21 -28 21 -34 21 -720 0 -864 7 -822 -148 -834 -41 -3 -97 0 -130 7 -109
22 -148 80 -310 460 -58 135 -196 459 -307 720 -112 261 -211 487 -222 503
-23 32 -52 35 -76 7z m1836 -160 c299 -34 529 -173 631 -382 69 -140 85 -216
84 -408 0 -136 -4 -179 -22 -245 -61 -231 -198 -364 -436 -426 -100 -26 -320
-31 -405 -10 -73 18 -126 46 -145 75 -27 40 -35 224 -35 802 0 447 3 554 14
569 23 32 160 43 314 25z m-1754 -570 c60 -155 110 -290 113 -300 5 -19 -1
-20 -232 -20 -130 0 -235 4 -233 9 93 240 235 591 239 591 3 0 54 -126 113
-280z"/>
<path d="M9925 6473 c-8 -8 -15 -15 -16 -16 0 -1 -7 -351 -14 -777 -9 -501
-18 -789 -25 -815 -16 -57 -39 -73 -121 -81 -46 -4 -73 -12 -76 -21 -3 -8 -3
-16 0 -20 5 -4 547 -8 640 -4 10 1 17 9 17 21 0 16 -7 20 -35 20 -60 0 -132
20 -152 43 -30 33 -43 82 -49 182 -7 115 -32 949 -28 953 1 2 173 -167 381
-375 375 -377 855 -837 896 -860 37 -21 76 -16 86 10 4 12 13 346 20 742 12
753 14 809 37 863 16 38 63 62 124 62 27 0 43 5 47 15 3 9 3 19 -1 22 -4 5
-506 8 -614 4 -17 -1 -22 -6 -20 -18 3 -14 17 -19 69 -24 86 -7 126 -25 146
-63 19 -37 27 -201 38 -776 l8 -384 -652 651 c-358 358 -660 653 -671 656 -11
3 -27 -1 -35 -10z"/>
<path d="M18185 6470 c-193 -31 -358 -137 -426 -276 -56 -113 -51 -267 13
-395 57 -113 156 -198 412 -349 209 -124 271 -206 264 -349 -4 -89 -23 -133
-81 -190 -75 -75 -205 -105 -336 -77 -171 36 -255 115 -283 264 -5 31 -12 67
-14 80 -5 27 -30 29 -43 3 -6 -10 -13 -102 -17 -203 l-7 -186 -26 8 c-119 34
-253 165 -603 594 l-114 139 117 116 c97 97 122 129 155 195 38 78 39 83 39
185 0 94 -3 112 -27 163 -37 79 -108 152 -182 187 -120 57 -175 62 -669 63
-246 0 -451 -2 -454 -5 -3 -4 -3 -12 0 -20 3 -9 28 -16 71 -19 72 -6 124 -31
144 -69 9 -19 12 -179 10 -734 -3 -638 -5 -714 -20 -747 -20 -44 -43 -58 -114
-65 -56 -6 -74 -17 -56 -35 12 -12 712 -15 731 -4 27 17 -1 31 -83 42 -61 8
-94 18 -107 31 -30 30 -40 120 -42 377 l-2 241 100 3 c158 5 151 8 241 -121
234 -336 365 -487 469 -538 76 -37 186 -50 410 -48 88 0 187 -4 220 -10 87
-16 356 -14 438 4 97 20 181 68 263 150 104 104 143 197 144 345 0 137 -41
246 -131 344 -72 79 -143 131 -299 221 -259 148 -313 205 -314 331 0 49 6 70
28 108 89 152 376 185 516 59 52 -46 90 -113 90 -155 0 -15 3 -33 6 -42 9 -24
41 -19 47 7 11 42 11 327 1 337 -31 31 -361 58 -479 40z m-1447 -175 c85 -38
153 -113 181 -197 40 -123 37 -256 -9 -363 -24 -56 -99 -138 -148 -161 -64
-30 -283 -22 -317 12 -13 13 -15 66 -15 362 0 191 4 352 8 358 11 18 48 23
147 20 74 -2 102 -8 153 -31z"/>
<path d="M15590 6449 c-20 -5 -379 -8 -822 -7 -433 1 -790 -1 -794 -5 -17 -16
7 -37 43 -37 53 0 110 -18 117 -36 9 -23 -28 -123 -197 -534 -235 -572 -279
-672 -287 -663 -11 12 -436 1112 -444 1149 -11 48 18 75 83 82 48 4 74 22 57
39 -7 7 -1435 7 -1443 -1 -16 -16 10 -34 60 -39 72 -7 112 -29 127 -69 16 -44
25 -864 12 -1208 -11 -325 -11 -324 -134 -337 -48 -5 -58 -9 -58 -24 0 -11 3
-19 8 -19 61 -4 754 -1 759 3 3 3 3 12 0 20 -3 9 -30 16 -81 21 -105 9 -131
21 -153 64 -17 35 -18 79 -18 754 0 712 0 717 21 745 11 15 36 33 55 40 49 17
177 16 240 -3 70 -21 107 -61 151 -165 505 -1183 624 -1459 640 -1481 29 -42
70 -38 98 10 12 20 114 240 225 487 195 431 383 841 463 1009 42 89 93 142
147 152 60 11 170 -1 207 -23 60 -35 60 -25 55 -788 -2 -512 -6 -700 -16 -728
-15 -48 -45 -67 -116 -74 -35 -4 -59 -11 -62 -20 -3 -8 -4 -16 -1 -18 2 -2
257 -7 566 -10 544 -5 562 -5 581 14 24 24 44 135 45 251 1 72 -1 85 -16 88
-12 2 -19 -5 -24 -25 -25 -116 -58 -161 -132 -183 -20 -6 -89 -14 -152 -17
-131 -6 -240 8 -289 38 -60 36 -65 63 -69 367 -2 151 -1 285 3 299 l6 26 190
-8 c105 -4 209 -12 231 -19 53 -15 81 -53 88 -119 4 -44 8 -52 25 -52 17 0 20
8 23 50 1 28 9 110 17 184 8 73 12 137 9 142 -9 15 -27 10 -55 -17 -35 -34
-109 -43 -345 -44 -157 0 -183 2 -188 16 -9 24 -7 557 3 573 12 19 398 11 456
-10 49 -18 82 -65 91 -130 6 -48 24 -64 40 -38 4 7 13 75 20 153 8 78 15 150
16 161 3 23 -26 29 -82 14z"/>
<path d="M26865 6449 c-22 -5 -275 -8 -563 -7 -287 1 -525 -2 -528 -5 -4 -3
-4 -13 -1 -22 4 -10 20 -15 47 -15 63 0 126 -19 151 -46 20 -21 24 -40 32
-152 11 -162 1 -1250 -13 -1317 -15 -70 -41 -93 -118 -101 -51 -6 -62 -10 -62
-25 0 -11 6 -19 13 -19 6 0 260 -2 563 -5 622 -6 574 -12 593 75 16 72 31 233
24 258 -11 43 -36 21 -54 -46 -20 -78 -61 -124 -127 -143 -64 -19 -321 -19
-385 0 -61 18 -103 65 -112 123 -3 24 -5 165 -3 313 l3 270 190 -3 c105 -2
207 -7 227 -13 52 -14 85 -57 93 -124 6 -44 11 -55 24 -53 18 4 22 26 41 241
7 75 10 140 6 144 -4 4 -13 3 -20 -2 -53 -40 -73 -48 -133 -56 -38 -5 -150 -8
-248 -7 l-180 3 -3 299 -2 298 212 -4 c175 -4 221 -8 256 -23 49 -20 73 -57
81 -125 4 -31 11 -46 23 -48 22 -4 25 11 38 153 5 66 13 137 16 158 6 34 5 37
-17 36 -13 -1 -42 -5 -64 -10z"/>
<path d="M18967 6442 c-9 -2 -17 -12 -17 -21 0 -15 11 -19 62 -24 37 -3 71
-13 87 -25 52 -38 52 -41 49 -792 -3 -623 -5 -699 -20 -732 -20 -45 -43 -58
-115 -65 -49 -5 -76 -23 -60 -39 4 -4 692 -8 755 -5 6 1 12 9 12 20 0 16 -11
19 -82 25 -97 8 -128 21 -147 61 -23 48 -33 365 -28 935 5 628 -1 602 137 617
50 5 60 9 60 24 0 11 -6 19 -12 19 -74 3 -669 4 -681 2z"/>
<path d="M19936 6442 c-10 -2 -16 -11 -14 -20 2 -13 18 -18 68 -23 76 -6 115
-23 144 -62 21 -28 21 -34 21 -720 0 -855 6 -819 -135 -834 -50 -5 -60 -9 -60
-24 0 -11 7 -19 18 -20 9 0 125 -2 257 -3 132 -1 344 -6 470 -10 247 -9 337
-3 482 35 293 77 505 257 604 512 45 119 59 196 59 342 0 157 -22 262 -80 380
-122 251 -351 392 -705 435 -90 11 -1079 21 -1129 12z m862 -122 c299 -34 529
-173 631 -382 69 -140 85 -216 84 -408 0 -136 -4 -179 -22 -245 -61 -231 -198
-364 -436 -426 -100 -26 -320 -31 -405 -10 -73 18 -126 46 -145 75 -27 41 -34
211 -35 792 0 456 3 564 14 579 23 32 160 43 314 25z"/>
<path d="M30381 4349 c-52 -32 -245 -178 -353 -268 -64 -53 -98 -88 -98 -101
0 -25 14 -25 54 0 53 32 255 110 355 136 51 13 120 24 152 24 75 0 75 6 12
131 -53 104 -66 113 -122 78z"/>
<path d="M23662 4079 c-474 -64 -801 -353 -898 -795 -25 -113 -23 -328 4 -454
88 -417 401 -709 853 -795 271 -51 700 -34 853 34 40 17 46 25 61 73 21 70 55
281 55 340 0 85 -35 73 -64 -22 -50 -157 -166 -254 -344 -286 -100 -17 -279
-17 -363 0 -163 35 -320 126 -445 259 -117 124 -193 268 -231 437 -33 150 -27
410 14 565 51 194 184 370 337 445 109 54 179 70 322 77 137 7 276 -12 393
-52 183 -62 276 -171 298 -347 6 -48 12 -64 25 -66 29 -5 38 39 38 176 0 70 5
172 10 227 8 77 7 102 -3 111 -12 10 -111 30 -307 61 -116 18 -507 25 -608 12z"/>
<path d="M8920 4066 c-18 -8 -211 -12 -650 -16 -541 -4 -625 -7 -625 -20 0
-11 22 -17 87 -26 93 -12 127 -28 155 -71 17 -25 18 -81 21 -798 3 -776 -2
-925 -33 -984 -21 -42 -36 -50 -111 -58 -60 -7 -69 -11 -69 -28 0 -20 7 -20
420 -20 413 0 420 0 420 20 0 18 -9 21 -75 26 -104 9 -134 17 -158 42 -41 44
-45 85 -49 510 l-5 409 218 -4 c208 -3 221 -4 260 -26 50 -29 75 -69 83 -136
5 -42 9 -51 26 -51 19 0 21 10 31 145 7 80 15 175 19 213 9 76 -3 87 -45 42
-12 -13 -37 -29 -54 -34 -17 -5 -143 -11 -281 -13 l-250 -3 0 360 0 360 235
-3 c253 -3 307 -12 349 -56 12 -13 24 -41 27 -62 13 -99 15 -104 34 -104 24 0
27 13 35 140 3 58 11 136 17 173 13 76 6 91 -32 73z"/>
<path d="M16217 3792 c-22 -24 -64 -120 -407 -919 -157 -364 -292 -672 -301
-685 l-17 -22 -45 37 c-60 49 -222 231 -405 455 l-149 182 117 118 c97 98 123
130 156 196 38 78 39 83 39 185 0 95 -3 112 -28 162 -64 132 -172 205 -342
234 -131 22 -970 18 -970 -5 0 -11 18 -17 69 -23 37 -4 84 -15 103 -24 66 -31
64 -7 61 -787 -3 -678 -4 -702 -23 -741 -24 -48 -54 -65 -118 -65 -34 0 -49
-5 -54 -15 -3 -9 -2 -19 1 -23 10 -9 721 -11 736 -2 7 5 10 15 7 24 -5 12 -21
16 -64 17 -73 0 -121 17 -145 49 -25 34 -40 216 -36 440 l3 165 70 3 c39 1 97
-1 130 -5 l60 -8 74 -105 c244 -345 372 -494 466 -540 28 -14 57 -31 66 -38
12 -9 85 -12 310 -10 l294 3 3 23 c3 20 0 22 -47 22 -139 0 -141 43 -13 350
l69 165 293 0 293 0 93 -235 c51 -129 94 -243 94 -253 0 -10 -11 -22 -25 -27
-14 -5 -25 -16 -25 -24 0 -10 25 -15 113 -19 139 -8 1595 -8 1620 0 27 7 43
55 57 163 23 188 -2 259 -45 125 -27 -81 -69 -127 -137 -146 -56 -16 -334 -16
-412 1 -35 7 -68 21 -82 35 -48 48 -49 66 -49 750 0 697 -1 685 56 712 15 7
57 16 95 20 51 6 69 12 69 23 0 13 -50 15 -377 18 -364 2 -378 2 -378 -16 0
-16 10 -20 53 -25 71 -7 122 -29 144 -63 17 -27 18 -66 18 -714 0 -722 -3
-777 -45 -815 -25 -23 -139 -31 -200 -15 -67 18 -120 79 -184 213 -30 62 -177
400 -326 752 -150 352 -283 661 -296 686 -30 61 -58 73 -87 41z m-1528 -183
c118 -41 200 -152 221 -298 31 -218 -78 -423 -238 -447 -58 -9 -208 3 -241 19
l-26 12 -3 362 -2 363 22 5 c83 18 189 12 267 -16z m1610 -565 c62 -162 111
-297 109 -300 -3 -2 -109 -3 -236 -2 l-231 3 117 297 c64 164 119 298 122 298
3 0 56 -133 119 -296z"/>
<path d="M26803 3791 c-10 -11 -159 -350 -332 -753 -173 -403 -329 -762 -347
-798 -36 -73 -83 -122 -132 -138 l-34 -11 9 67 c4 37 8 105 8 152 0 67 -3 85
-14 85 -10 0 -22 -24 -34 -65 -41 -138 -76 -155 -322 -155 -154 0 -174 2 -218
22 -39 18 -52 31 -68 67 -18 42 -19 64 -17 338 l3 293 160 -3 c309 -6 328 -14
350 -154 4 -27 11 -38 23 -38 16 0 20 22 36 186 19 207 16 227 -31 182 -41
-40 -96 -47 -330 -48 l-213 0 0 300 0 300 153 0 c317 -1 383 -26 395 -149 4
-41 8 -51 23 -51 23 0 25 11 38 160 6 63 14 132 17 154 l7 39 -34 -8 c-19 -4
-285 -10 -591 -12 -531 -4 -558 -5 -558 -22 0 -15 11 -19 64 -24 36 -3 80 -13
100 -21 70 -29 67 5 64 -784 -3 -541 -7 -716 -17 -745 -14 -44 -55 -67 -119
-67 -44 0 -71 -21 -50 -37 8 -6 330 -9 843 -9 823 1 830 1 830 21 0 17 -9 21
-64 26 -79 8 -95 24 -87 88 5 38 72 214 145 384 l20 47 290 0 289 0 96 -240
c53 -132 96 -247 96 -255 0 -9 -11 -20 -25 -25 -14 -5 -25 -16 -25 -24 0 -22
173 -27 765 -24 512 3 520 3 520 23 0 18 -9 21 -77 27 -145 13 -147 17 -161
355 -5 138 -6 264 -3 279 l7 27 117 -6 c64 -3 124 -8 132 -11 8 -4 42 -46 75
-94 113 -164 293 -397 352 -457 36 -35 92 -77 138 -103 l79 -42 290 2 c283 3
291 4 291 23 0 17 -8 21 -61 25 -34 3 -69 12 -79 20 -32 27 -15 101 70 309
l78 191 291 -2 291 -3 96 -240 c53 -131 94 -245 92 -253 -3 -7 -17 -18 -30
-23 -42 -16 -20 -34 48 -40 99 -10 522 -10 538 0 26 17 4 41 -36 41 -112 0
-170 52 -253 225 -32 66 -181 408 -330 760 -292 686 -300 704 -325 725 -24 20
-59 -1 -83 -52 -11 -24 -152 -349 -312 -723 -336 -783 -369 -855 -385 -855
-29 0 -296 297 -559 623 l-38 47 100 98 c161 156 216 259 216 407 0 69 -4 90
-31 147 -57 121 -143 191 -289 234 -52 15 -118 18 -542 21 -463 4 -484 3 -480
-14 3 -14 17 -19 66 -25 35 -4 80 -15 100 -25 68 -33 67 -20 70 -598 4 -575
-6 -879 -31 -936 -18 -43 -54 -59 -131 -59 -120 0 -180 43 -249 178 -25 48
-131 290 -237 537 -106 248 -242 567 -303 709 -61 143 -119 268 -129 278 -23
23 -43 23 -65 -1z m1733 -182 c62 -23 135 -85 169 -143 48 -83 67 -227 44
-338 -26 -125 -113 -234 -203 -257 -89 -22 -268 -6 -293 27 -10 12 -13 99 -13
357 0 258 3 345 13 358 24 32 194 29 283 -4z m-1652 -557 c60 -158 111 -293
114 -299 3 -10 -48 -13 -233 -13 -136 0 -235 4 -233 9 42 113 234 591 238 591
3 0 54 -129 114 -288z m3261 -14 l112 -293 -230 -3 c-126 -1 -232 0 -235 3 -3
2 43 125 101 272 58 148 111 281 117 297 6 16 13 26 17 23 3 -4 57 -138 118
-299z"/>
<path d="M10215 3760 c-16 -4 -274 -8 -573 -9 -512 -1 -543 -2 -540 -18 2 -14
18 -20 66 -25 35 -4 80 -15 100 -25 68 -33 66 -23 70 -578 4 -523 -7 -897 -28
-953 -15 -40 -39 -53 -110 -61 -45 -5 -55 -9 -55 -25 0 -18 18 -19 567 -23
l567 -3 16 29 c18 36 50 271 41 307 -12 45 -37 25 -56 -43 -23 -83 -43 -111
-98 -136 -43 -20 -64 -22 -222 -22 -164 0 -178 2 -223 24 -82 40 -82 41 -82
391 l0 305 175 -3 c282 -5 321 -21 335 -137 6 -44 11 -55 25 -55 15 0 19 11
25 68 3 37 10 108 15 159 18 168 11 192 -40 138 -35 -37 -102 -46 -330 -43
l-205 3 -3 298 -2 297 147 0 c176 0 307 -14 339 -35 36 -23 58 -63 64 -114 3
-32 10 -47 22 -49 21 -4 26 12 37 143 6 61 13 131 17 158 7 52 4 54 -61 37z"/>
<path d="M13646 3763 c-4 -5 -260 -10 -569 -13 -491 -4 -562 -7 -562 -20 0
-11 18 -17 68 -23 79 -8 120 -27 144 -64 17 -25 18 -75 18 -718 0 -849 5 -819
-126 -833 -54 -6 -64 -10 -64 -26 0 -18 18 -19 567 -23 l567 -3 16 23 c16 25
45 201 45 280 0 34 -4 49 -15 54 -21 8 -23 5 -45 -73 -23 -86 -63 -127 -139
-143 -67 -14 -285 -14 -351 0 -68 14 -114 55 -129 113 -16 66 -15 580 2 593 7
7 83 8 207 4 258 -10 285 -22 297 -137 5 -43 9 -54 23 -54 23 0 30 20 30 84 0
28 7 105 15 171 9 71 11 123 6 128 -6 6 -29 -4 -56 -24 l-47 -34 -242 0 -241
0 0 295 0 295 200 -1 c284 -1 323 -17 346 -135 11 -55 28 -75 44 -49 3 5 10
58 15 117 5 59 13 134 16 166 6 52 5 57 -13 57 -11 0 -23 -3 -27 -7z"/>
<path d="M10455 3741 c-12 -20 4 -28 69 -34 76 -7 119 -26 143 -64 17 -25 18
-75 18 -718 0 -849 4 -821 -127 -834 -54 -5 -63 -9 -63 -26 0 -19 7 -20 255
-20 140 -1 329 -7 420 -14 188 -14 330 -9 473 20 399 80 647 312 728 684 20
89 17 294 -5 390 -22 98 -89 240 -151 317 -111 140 -293 239 -525 284 -72 14
-175 18 -657 21 -397 3 -573 1 -578 -6z m961 -127 c101 -18 174 -43 262 -88
238 -126 356 -327 369 -632 9 -204 -25 -372 -98 -485 -45 -70 -138 -152 -219
-192 -106 -54 -199 -72 -370 -72 -160 0 -237 16 -297 61 -55 42 -57 67 -57
761 -1 567 0 624 16 639 34 34 225 38 394 8z"/>
<path d="M21207 3405 c-478 -91 -721 -568 -510 -1004 37 -77 59 -109 122 -170
133 -134 290 -198 506 -208 141 -6 235 6 353 46 114 40 184 83 273 171 61 61
85 94 123 170 63 129 79 210 73 375 -5 159 -28 236 -102 345 -86 127 -220 216
-391 261 -106 28 -336 35 -447 14z m273 -102 c89 -24 151 -62 220 -132 136
-138 200 -362 171 -598 -29 -239 -124 -381 -290 -433 -166 -52 -370 -1 -497
126 -140 140 -210 370 -184 604 24 212 95 337 233 405 111 54 220 63 347 28z"/>
<path d="M19293 3392 c-260 -2 -303 -4 -303 -17 0 -11 11 -15 40 -15 56 0 120
-28 131 -57 12 -31 11 -1095 -1 -1147 -12 -53 -30 -68 -90 -74 -39 -4 -50 -8
-48 -20 3 -14 36 -17 253 -21 489 -9 611 -6 700 18 215 56 381 183 463 351 57
115 75 193 75 320 1 131 -14 202 -64 308 -71 149 -203 256 -379 310 -135 41
-278 49 -777 44z m512 -117 c154 -42 300 -147 364 -258 58 -102 76 -186 76
-347 0 -155 -12 -216 -60 -310 -48 -95 -149 -173 -275 -211 -61 -19 -98 -23
-200 -24 -140 0 -195 12 -241 53 -30 27 -31 32 -40 137 -11 152 -11 918 0 949
6 13 18 27 28 30 38 11 289 -3 348 -19z"/>
</g>
</svg>
